<svg xmlns="http://www.w3.org/2000/svg" viewBox="0 0 24 24" width="48" height="48" class="icon">
  <path d="M19.4 13.4c.04-.35.06-.71.06-1.07s-.02-.72-.06-1.07l2.1-1.65a.5.5 0 0 0 .12-.64l-2-3.46a.5.5 0 0 0-.6-.22l-2.49 1a7.03 7.03 0 0 0-1.85-1.07l-.38-2.65A.5.5 0 0 0 12 2h-4a.5.5 0 0 0-.5.43L7.12 5.08c-.66.25-1.27.6-1.83 1.03L2.8 5.08a.5.5 0 0 0-.6.22L.2 8.76a.5.5 0 0 0 .12.64L2.4 11.05c-.04.35-.06.71-.06 1.07 0 .36.02.72.06 1.07L.3 14.84a.5.5 0 0 0-.12.64l2 3.46c.14.24.44.34.69.22l2.49-1c.56.43 1.17.78 1.83 1.03L7.5 22a.5.5 0 0 0 .5.43h4a.5.5 0 0 0 .5-.43l.38-2.65c.68-.25 1.31-.6 1.88-1.03l2.49 1c.25.12.55.02.69-.22l2-3.46a.5.5 0 0 0-.12-.64l-2.1-1.65zM12 15.5A3.5 3.5 0 1 1 12 8.5a3.5 3.5 0 0 1 0 7z"></path>
</svg>
